<svg xmlns="http://www.w3.org/2000/svg" width="83" height="22" viewBox="0 0 21.96 5.821"><path d="M19.435.196h-4.357v.449h1.977l-.033.047v4.933h.469V.692l-.034-.047h1.978zM12.17 2.884V2.87L14.86.203h-.657l-2.675 2.68 2.735 2.742h.684zM11.46.196h-.469v5.429h.47zM10.108.196h-.47v5.429h.47zM8.895 5.176H5.812l.047-.047V.196h-.47v5.43h3.506zM4.58.893C4.15.41 3.527.129 2.67.129 1.007.129.089 1.282.089 2.944S.96 5.692 2.663 5.692c.838 0 1.474-.281 1.903-.764l-.348-.349c-.335.416-.838.664-1.555.664-1.495 0-2.085-1.039-2.085-2.3 0-1.28.61-2.365 2.092-2.365.723 0 1.22.255 1.548.67z" fill="#222"/></svg>