<svg xmlns="http://www.w3.org/2000/svg" xmlns:xlink="http://www.w3.org/1999/xlink" width="600" height="200" viewBox="0 0 158.75 52.917"><defs><radialGradient xlink:href="#a" id="b" cx="7.252" cy="98.554" fx="7.252" fy="98.554" r="71.973" gradientTransform="matrix(2.00597 0 0 .97684 -7.296 -47.082)" gradientUnits="userSpaceOnUse"/><linearGradient id="a"><stop offset="0" stop-color="#ef4857"/><stop offset=".17" stop-color="#de4970"/><stop offset=".5" stop-color="#b44db0"/><stop offset="1" stop-color="#7f52ff"/></linearGradient></defs><path d="M27.087 3.766c-12.686 0-19.685 9.186-19.685 22.966 0 13.78 6.616 22.419 19.63 22.419 5.96 0 10.444-1.914 13.615-5.195l-.385-.38c-2.898 3.007-7.817 5.057-13.23 5.057-13.233 0-19.09-10.145-19.09-21.847 0-11.81 6.021-22.541 19.145-22.541 5.522 0 10.415 1.981 13.259 5.098l.41-.437c-3.17-3.226-7.6-5.14-13.67-5.14zm91.486.542v.52h16.153l-.055.082v43.637h.547V4.91l-.055-.082h16.185v-.52zm-39.08.007v44.291h.63V4.315zm34.638 0L89.523 26.258l25.264 22.349h.82l-25.264-22.35v-.027l24.608-21.915zm-25.428.011v44.278h.547V4.326zm-41.518.015v44.272H74.49v-.52H47.676l.087-.081V4.342z" fill="url(#b)"/></svg>
