<svg xmlns="http://www.w3.org/2000/svg" width="83" height="22" viewBox="0 0 21.96042 5.82083">
  <path d="M4.57984.89288C4.15086.41028 3.5275.12876 2.66954.12876 1.00727.12876.08899 1.28164.08899 2.94393c0 1.6623.87136 2.74814 2.57386 2.74814.83785 0 1.47461-.28152 1.9036-.76412l-.34855-.34854c-.33514.41557-.83785.66357-1.55505.66357-1.49472 0-2.08456-1.03893-2.08456-2.29905 0-1.28023.60995-2.36608 2.09127-2.36608.7239 0 1.2199.2547 1.54834.67028zm4.31564 4.28307H5.81221l.04692-.0469V.19581h-.4692v5.42925h3.50555zM10.10806.1958h-.4692v5.42924h.4692zm3.78916 0h-.4692v5.42924h.4692zm.7105 2.6878v-.0134L17.29553.2025h-.65687l-2.67441 2.6811 2.73473 2.74144h.68369zM21.87143.1958h-4.3568v.44908h1.97732l-.03351.0469v4.93325h.46919V.69178l-.03351-.0469h1.97732z" fill="#fff" stroke-width=".26458"/>
</svg>
