<svg xmlns="http://www.w3.org/2000/svg" width="700" height="200" viewBox="0 0 185.20833 52.91667">
  <g>
    <path d="M78.45911 48.09339H51.64507l.08669-.082V4.34145h-.57804v44.27141H78.4591zm5.63173-43.7784h-.6295v44.29125h.6295z"/>
    <path d="M112.52321 4.31499h-1.09361v44.29125h1.09361zm2.18723 21.9269v-.0547l24.60625-21.87222h-1.64042l-24.60625 21.9269 25.26242 22.36435h1.64041z" fill="#f88908" fill-opacity=".50196"/>
    <path d="M112.79798 4.32619h-.54681v44.27787h.54681zm1.09361 21.93152v-.0274l24.6073-21.9149h-.8202l-24.60731 21.94225 25.26403 22.34945h.82021z"/>
    <path d="M173.83805 4.31499h-32.80833v1.03893h15.96672l-.10936.16404v43.08828h1.09361V5.51796l-.10936-.16404h15.96672z" fill="#0094d4" fill-opacity=".50196"/>
    <path d="M173.83805 4.30837h-32.77526v.51947h16.15237l-.0547.082v43.63685h.54681V4.90984l-.0547-.082h16.18544zM44.72542 8.90588c-3.17147-3.22616-7.6006-5.13998-13.67014-5.13998-12.68589 0-19.685 9.18634-19.685 22.96584s6.61635 22.41903 19.63032 22.41903c5.96018 0 10.44399-1.91382 13.61546-5.19466l-.3852-.38105c-2.89806 3.00743-7.81688 5.05768-13.23026 5.05768-13.23269 0-19.0892-10.14468-19.0892-21.84632 0-11.811 6.02055-22.54175 19.14388-22.54175 5.52274 0 10.41605 1.98185 13.25944 5.09865z"/>
  </g>
</svg>
